PathFileType  4	(X/Y/Z) C:\Users\antoi\Documents\MyRepositories\mobilecap\ResultsAnalysis
DataRate	CameraRate	NumFrames	NumMarkers	Units	OrigDataRate	OrigDataStartFrame	OrigNumFrames
100.0	100.0	5	51	mm	100.0	22	170
Frame#	Time	r_knee			r_shank_antsup			r_ankle			r_calc			r_5meta			r_toe			L_knee			L_shank_antsup			L_ankle			L_calc			L_5meta			L_toe			r_sh2			r_sh3			r_sh4			L_sh2			L_sh3			r_thigh1			r_thigh2			r_thigh3			r_thigh4			r_thigh5			L_thigh1			L_thigh2			L_thigh3			L_thigh4			r.ASIS			r.PSIS			L.ASIS			L.PSIS			C7			R_Shoulder			L_Shoulder			R_Sternum			L_Sternum			R_humerus			R_elbow_med			R_elbow_lat			R_forearm			R_wrist_radius			R_wrist_ulna			L_humerus			L_elbow_med			L_elbow_lat			L_forearm			L_wrist_radius			L_wrist_ulna			R_HJC			L_HJC			R_HJC_reg			L_HJC_reg			
		X1	Y1	Z1	X2	Y2	Z2	X3	Y3	Z3	X4	Y4	Z4	X5	Y5	Z5	X6	Y6	Z6	X7	Y7	Z7	X8	Y8	Z8	X9	Y9	Z9	X10	Y10	Z10	X11	Y11	Z11	X12	Y12	Z12	X13	Y13	Z13	X14	Y14	Z14	X15	Y15	Z15	X16	Y16	Z16	X17	Y17	Z17	X18	Y18	Z18	X19	Y19	Z19	X20	Y20	Z20	X21	Y21	Z21	X22	Y22	Z22	X23	Y23	Z23	X24	Y24	Z24	X25	Y25	Z25	X26	Y26	Z26	X27	Y27	Z27	X28	Y28	Z28	X29	Y29	Z29	X30	Y30	Z30	X31	Y31	Z31	X32	Y32	Z32	X33	Y33	Z33	X34	Y34	Z34	X35	Y35	Z35	X36	Y36	Z36	X37	Y37	Z37	X38	Y38	Z38	X39	Y39	Z39	X40	Y40	Z40	X41	Y41	Z41	X42	Y42	Z42	X43	Y43	Z43	X44	Y44	Z44	X45	Y45	Z45	X46	Y46	Z46	X47	Y47	Z47	X48	Y48	Z48	X49	Y49	Z49	X50	Y50	Z50	X51	Y51	Z51	

22	0.21000000	188.50631	489.95677	-57.90074	231.02030	444.72328	-65.87090	141.61656	89.61445	-90.92663	84.54618	58.26987	-140.64600	288.65585	34.94641	-57.54805	313.07261	61.63726	-116.47815	0.93486	450.57959	-373.52993	-43.18946	378.21628	-380.69696	-337.29229	258.73878	-316.63439	-387.86758	293.48484	-255.27910	-346.64007	117.90075	-336.73659	-296.37682	92.47644	-296.38605	224.94132	330.75679	-81.50915	165.72822	440.35946	-30.12885	157.24495	325.15736	-29.68639	-80.86176	457.99384	-385.06006	-186.42460	397.93824	-370.62122	163.58412	788.79825	-120.14366	216.35837	691.14289	-113.90524	212.76640	668.15174	-46.76183	118.79494	772.22865	-18.53345	164.60238	669.41307	-16.98657	43.21202	765.53579	-379.63011	42.50370	623.77141	-392.80278	-69.14401	763.72074	-360.61595	-65.40229	627.83782	-350.71708	129.05947	927.65965	-92.69628	-73.58018	973.67887	-143.39167	95.16621	916.30100	-321.49633	-88.43169	969.14992	-240.01030	5.48094	1419.31757	-103.06349	63.37735	1327.05850	48.24692	79.73770	1395.23750	-274.17836	110.14633	1310.23021	-105.98198	111.98963	1315.99982	-143.83357	51.24082	1076.61816	78.75019	-10.68470	998.17647	33.21625	20.44934	986.69562	84.37803	77.28215	854.18623	80.23682	114.92899	759.96026	49.07171	73.53912	752.52198	78.06867	62.88201	1182.97320	-399.64652	-4.10657	1081.05427	-385.24140	29.13875	1091.95390	-434.55277	98.26843	965.06642	-454.85462	137.81622	861.87778	-439.94298	108.33487	857.23607	-472.35988	42.61307	851.09448	-112.77944	6.48707	851.90409	-299.99822	50.00989	862.56860	-109.97134	26.81429	855.49565	-260.87368	
23	0.22000000	190.72085	489.90856	-56.85575	233.01315	444.36085	-64.98595	141.51303	89.63587	-90.62631	84.52725	58.33278	-140.56055	288.61643	34.91287	-57.46991	312.98972	61.86855	-116.26149	19.32571	453.30049	-372.89309	-23.90215	381.46355	-380.13831	-317.40655	261.13128	-316.01221	-369.12522	294.09485	-254.28535	-323.86152	120.92528	-338.63913	-273.57229	95.50094	-298.35138	226.09824	330.43558	-80.82445	167.78981	440.31623	-29.01890	158.53963	325.18803	-28.74785	-61.77906	461.21168	-383.51477	-167.26722	400.95127	-369.22979	170.69588	789.27150	-119.04961	221.64349	690.66493	-112.54798	217.58836	667.77515	-45.48882	125.10878	773.47345	-17.56088	169.53687	669.92235	-15.91259	53.99614	768.86710	-379.26456	56.58210	627.20680	-392.67776	-58.37948	764.50737	-360.04253	-51.35705	628.61722	-350.34299	137.14126	930.01364	-91.82147	-65.40459	976.13040	-142.73251	103.48558	919.15860	-320.59295	-80.18300	971.70053	-239.38589	16.07455	1421.71770	-101.34640	74.46906	1329.10711	49.50317	89.09643	1397.61439	-272.89241	119.94641	1311.97130	-104.85721	121.83041	1317.90415	-142.78110	62.10894	1078.66283	79.69921	-0.31288	1000.24951	34.53851	31.34142	988.66717	85.42791	89.08400	856.54177	80.17410	127.36233	762.84548	48.24091	86.18523	754.94994	77.40590	70.25337	1185.96215	-399.00030	3.46171	1083.95744	-384.13968	35.91187	1094.97979	-433.56487	105.74683	968.43349	-454.85249	146.49961	865.77366	-440.37750	116.43675	860.57908	-471.99697	50.72908	853.48773	-112.16206	14.85904	854.65018	-299.42886	58.12928	865.12000	-109.22438	35.06119	858.20543	-260.09359	
24	0.23000000	192.59798	489.87519	-55.78513	234.67497	444.04763	-64.04296	141.37484	89.67928	-90.37597	84.50141	58.38988	-140.48975	288.55898	34.88256	-57.37685	312.91146	62.13240	-116.01804	37.46291	456.30049	-372.05534	-4.61237	384.73127	-379.43515	-297.06005	262.30121	-315.61373	-350.06287	293.47664	-253.79947	-300.22538	122.64723	-340.36015	-249.96571	97.50120	-299.91446	227.02412	330.17361	-80.08952	169.45454	440.30222	-27.96654	159.53549	325.24484	-27.88772	-43.04530	464.26035	-381.91580	-148.17578	403.28928	-367.88541	177.79109	789.75385	-117.64860	226.74975	690.13108	-110.93373	222.04368	667.25212	-43.98330	130.99865	774.61743	-16.47131	174.14167	670.36268	-14.77559	64.66351	772.31996	-378.84003	70.59535	630.89795	-392.53661	-47.68883	765.46150	-359.59610	-37.48183	629.62489	-350.02102	145.02756	932.33712	-90.85500	-57.29455	978.57570	-142.03560	111.77294	922.02981	-319.64083	-71.97289	974.29292	-238.71260	26.46387	1424.14890	-99.83553	85.39195	1331.26291	50.58919	98.29658	1399.92788	-271.74656	129.54678	1313.74762	-103.86590	131.47307	1319.82121	-141.86012	72.98484	1080.81616	80.52131	9.96413	1002.39618	35.87656	42.17084	990.75327	86.46462	100.78610	859.03520	80.10063	139.70346	765.84983	47.40357	98.92086	757.44992	76.68620	77.61235	1188.76310	-398.32860	10.79258	1086.79490	-383.08932	42.58558	1097.85659	-432.63717	112.93672	971.60259	-454.83612	154.81386	869.48203	-440.83763	124.05210	863.72152	-471.62118	58.70648	855.85656	-111.50449	23.17046	857.43135	-298.83180	66.11299	867.61847	-108.44554	43.20851	860.93553	-259.30376	
25	0.24000000	194.13782	489.87074	-54.67563	235.94329	443.79522	-62.92561	141.19301	89.74950	-90.18126	84.46769	58.44610	-140.43419	288.48145	34.85242	-57.26850	312.84748	62.42164	-115.75142	55.39365	459.56259	-371.02698	14.67187	387.93067	-378.57532	-276.32944	262.27713	-315.39621	-330.64278	291.66002	-253.68479	-275.92452	123.12478	-341.84836	-225.59699	98.54407	-301.12877	227.67856	329.98016	-79.18386	170.58765	440.35742	-27.01404	160.08205	325.36346	-27.13203	-24.64728	467.05910	-380.38399	-129.12948	404.90239	-366.69662	184.75248	790.22424	-116.01387	231.67818	689.58799	-109.13390	226.16350	666.64135	-42.29143	136.51262	775.67890	-15.29481	178.43137	670.78834	-13.55512	75.23286	775.87140	-378.33969	84.56708	634.82001	-392.36656	-37.03508	766.54112	-359.26811	-23.74270	630.84648	-349.74033	152.67552	934.55472	-89.79592	-49.22828	981.00100	-141.31187	120.04808	924.87181	-318.65028	-63.77994	976.90515	-238.00768	36.63988	1426.59355	-98.53153	96.10634	1333.51124	51.50447	107.34033	1402.16169	-270.74237	138.99797	1315.58239	-103.01017	140.91653	1321.74814	-141.06357	83.84497	1083.07336	81.23012	20.17305	1004.60556	37.20736	52.96057	992.94401	87.47005	112.40358	861.64667	80.01915	151.92998	768.95004	46.58628	111.74823	759.98591	75.89889	84.95244	1191.36836	-397.63538	17.92348	1089.54556	-382.10546	49.23084	1100.56464	-431.79561	119.91013	974.55336	-454.78863	162.78068	872.95350	-441.27868	131.23817	866.65358	-471.25211	66.51396	858.14773	-110.82246	31.41911	860.22151	-298.22656	73.92864	870.04152	-107.63223	51.22455	863.65106	-258.50291	
26	0.25000000	195.36616	489.89638	-53.52610	236.81610	443.60521	-61.58053	140.97688	89.83960	-90.03920	84.42807	58.50569	-140.39438	288.38355	34.82203	-57.14605	312.80114	62.71903	-115.47077	73.15380	463.05731	-369.81772	33.92250	390.99871	-377.56801	-255.25803	261.11527	-315.29398	-310.86694	288.65960	-253.77962	-251.03015	122.47847	-343.10220	-200.39316	98.75940	-302.08349	228.05844	329.85015	-78.04843	171.16081	440.49758	-26.17793	160.13078	325.55728	-26.48179	-6.58324	469.56757	-379.01999	-110.12242	405.80372	-365.73962	191.52095	790.66144	-114.22991	236.43442	689.05604	-107.21944	229.97934	665.99016	-40.46612	141.73687	776.66740	-14.07094	182.34315	671.21730	-12.18681	85.73525	779.49850	-377.77472	98.50489	638.92705	-392.13893	-26.35038	767.69247	-359.05451	-10.09063	632.26983	-349.49478	160.05861	936.59877	-88.65234	-41.19788	983.38341	-140.58246	128.32894	927.64396	-317.63369	-55.59138	979.50215	-237.30230	46.60049	1429.03088	-97.43226	106.59473	1335.83319	52.24380	116.22536	1404.30264	-269.89113	148.32741	1317.48383	-102.28708	150.16947	1323.68216	-140.38452	94.65122	1085.42781	81.84685	30.33035	1006.87254	38.50710	63.72153	995.22932	88.42903	123.95514	864.35457	79.93330	164.00807	772.13084	45.82391	124.61199	762.54965	75.06588	92.24619	1193.78136	-396.93744	24.90367	1092.18201	-381.17946	55.87639	1103.08965	-431.03276	126.72792	977.27439	-454.69868	170.43135	876.14881	-441.66292	138.09441	869.37255	-470.90377	74.12885	860.31000	-110.13849	39.60889	862.98796	-297.63884	81.54995	872.36858	-106.79054	59.09301	866.31306	-257.69693	
